<svg width="176" height="150" viewBox="0 0 176 150" fill="none" xmlns="http://www.w3.org/2000/svg">
<g clip-path="url(#clip0_5955_6755)">
<path d="M150.549 78.68C146.236 50.0574 119.49 30.3443 90.8042 34.6054C62.1179 38.9096 42.361 65.5954 46.6316 94.2181C50.9453 122.841 77.6904 142.554 106.377 138.293C135.063 133.989 154.82 107.303 150.549 78.68ZM101.071 66.6714C103.487 63.4003 107.067 61.2482 111.079 60.6456C115.09 60.043 119.102 61.033 122.424 63.4864C125.745 65.9397 127.859 69.4691 128.463 73.472L122.812 74.3328C122.424 71.8364 121.087 69.5983 119.016 68.0918C116.945 66.5853 114.4 65.9397 111.941 66.3271C109.439 66.7145 107.196 68.0488 105.687 70.1148C104.177 72.1808 103.53 74.6772 103.918 77.1736L98.2669 78.0344C97.663 74.0315 98.6552 70.0287 101.114 66.7145L101.071 66.6714ZM78.6826 65.4663C87.0081 64.2181 94.8159 69.9856 96.0669 78.2927L90.4159 79.1535C89.6395 73.9455 84.6787 70.33 79.5453 71.1478C74.3257 71.9225 70.7022 76.7862 71.5218 81.9942L65.8708 82.8551C64.6199 74.548 70.4002 66.7575 78.7257 65.5093L78.6826 65.4663ZM102.883 114.62C101.287 114.878 99.6904 114.964 98.1375 114.964C82.6944 114.964 69.1061 103.644 66.7336 87.977L72.3846 87.1162C74.5414 101.277 87.7846 111.133 102.02 108.981C116.255 106.872 126.09 93.5724 123.934 79.4118L129.585 78.5509C132.173 95.8536 120.181 112.037 102.839 114.62H102.883Z" fill="#231F20"/>
<path d="M42.5767 115.093C52.1778 115.093 59.961 107.327 59.961 97.7475C59.961 88.1677 52.1778 80.4017 42.5767 80.4017C32.9756 80.4017 25.1924 88.1677 25.1924 97.7475C25.1924 107.327 32.9756 115.093 42.5767 115.093Z" fill="#231F20"/>
<path d="M95.3765 42.8264C85.5844 42.8264 76.0079 37.3601 71.5648 28.1922C69.1059 23.1994 68.8471 17.647 70.7451 12.5681C72.6432 7.48923 76.5687 3.5294 81.702 1.37732C90.4157 -2.23817 100.855 1.67861 104.996 10.1578C106.722 13.6872 106.937 17.647 105.557 21.2625C104.177 24.878 101.416 27.6757 97.7922 29.2252C91.5804 31.8077 84.0746 29.01 81.1412 22.9412C79.8902 20.3156 79.7177 17.4318 80.753 14.7633C81.7451 12.0947 83.8157 10.0287 86.4902 8.9096L89.4236 15.9254C88.6902 16.2267 88.1295 16.7862 87.8706 17.4749C87.6118 18.1635 87.655 18.9383 88.0001 19.627C89.2079 22.0803 92.3569 23.2855 94.902 22.2095C96.5844 21.5208 97.8785 20.2295 98.4824 18.594C99.0863 16.9584 99.0001 15.1506 98.1804 13.5151C95.7648 8.60831 89.7255 6.32711 84.6785 8.43614C81.4863 9.77044 79.0706 12.2238 77.9059 15.3228C76.7412 18.4218 76.9138 21.8221 78.4236 24.9641C82.651 33.6155 93.3491 37.6614 102.278 33.9598L105.212 40.9756C102.02 42.3099 98.6981 42.9125 95.3765 42.9125V42.8264Z" fill="#231F20"/>
<path d="M170.953 113.544C173.74 113.544 176 111.289 176 108.508C176 105.727 173.74 103.472 170.953 103.472C168.165 103.472 165.906 105.727 165.906 108.508C165.906 111.289 168.165 113.544 170.953 113.544Z" fill="#231F20"/>
<path d="M12.8681 49.1036C12.5065 47.4792 10.8937 46.4548 9.26567 46.8155C7.63765 47.1762 6.61094 48.7855 6.97246 50.4099L10.9 68.0575C11.2615 69.6819 12.8744 70.7063 14.5024 70.3456C16.1304 69.9849 17.1571 68.3756 16.7956 66.7512L12.8681 49.1036Z" fill="#231F20"/>
<path d="M21.3599 59.5399C22.9879 59.1792 24.0146 57.5699 23.6531 55.9455C23.2916 54.3211 21.6788 53.2966 20.0507 53.6574L2.36392 57.5762C0.73589 57.9369 -0.290816 59.5462 0.0707054 61.1706C0.432226 62.795 2.04507 63.8194 3.6731 63.4587L21.3599 59.5399Z" fill="#231F20"/>
<path d="M162.576 131.798C163.268 130.285 162.6 128.497 161.083 127.806C159.565 127.116 157.774 127.783 157.082 129.297L149.56 145.742C148.868 147.256 149.536 149.043 151.053 149.734C152.57 150.425 154.362 149.758 155.054 148.244L162.576 131.798Z" fill="#231F20"/>
<path d="M163.054 145.3C164.571 145.991 166.362 145.324 167.054 143.81C167.747 142.297 167.078 140.509 165.561 139.819L149.079 132.313C147.561 131.622 145.77 132.29 145.078 133.803C144.386 135.317 145.054 137.104 146.571 137.795L163.054 145.3Z" fill="#231F20"/>
</g>
<defs>
<clipPath id="clip0_5955_6755">
<rect width="176" height="150" fill="white"/>
</clipPath>
</defs>
</svg>
